<svg width="29" height="26" viewBox="0 0 29 26" fill="none" xmlns="http://www.w3.org/2000/svg">
<path d="M5.00293 25.8564C3.53809 25.8564 2.42969 25.4902 1.67773 24.7578C0.925781 24.0254 0.549805 22.9268 0.549805 21.4619V4.57227C0.549805 3.10742 0.925781 2.00879 1.67773 1.27637C2.42969 0.53418 3.53809 0.163086 5.00293 0.163086H24.002C25.4863 0.163086 26.5996 0.53418 27.3418 1.27637C28.084 2.01855 28.4551 3.11719 28.4551 4.57227V21.4619C28.4551 22.917 28.084 24.0107 27.3418 24.7432C26.5996 25.4854 25.4863 25.8564 24.002 25.8564H5.00293ZM4.88574 23.3809H24.1045C24.7002 23.3809 25.1592 23.2246 25.4814 22.9121C25.8135 22.5996 25.9795 22.126 25.9795 21.4912V8.58594C25.9795 7.96094 25.8135 7.49219 25.4814 7.17969C25.1592 6.86719 24.7002 6.71094 24.1045 6.71094H4.88574C4.29004 6.71094 3.83594 6.86719 3.52344 7.17969C3.21094 7.49219 3.05469 7.96094 3.05469 8.58594V21.4912C3.05469 22.126 3.21094 22.5996 3.52344 22.9121C3.83594 23.2246 4.29004 23.3809 4.88574 23.3809ZM11.8291 11.5889C11.585 11.5889 11.4092 11.5449 11.3018 11.457C11.2041 11.3691 11.1553 11.2031 11.1553 10.959V10.1533C11.1553 9.90918 11.2041 9.74316 11.3018 9.65527C11.4092 9.55762 11.585 9.50879 11.8291 9.50879H12.6348C12.8789 9.50879 13.0449 9.55762 13.1328 9.65527C13.2305 9.74316 13.2793 9.90918 13.2793 10.1533V10.959C13.2793 11.2031 13.2305 11.3691 13.1328 11.457C13.0449 11.5449 12.8789 11.5889 12.6348 11.5889H11.8291ZM16.3848 11.5889C16.1406 11.5889 15.9697 11.5449 15.8721 11.457C15.7842 11.3691 15.7402 11.2031 15.7402 10.959V10.1533C15.7402 9.90918 15.7842 9.74316 15.8721 9.65527C15.9697 9.55762 16.1406 9.50879 16.3848 9.50879H17.2051C17.4492 9.50879 17.6201 9.55762 17.7178 9.65527C17.8154 9.74316 17.8643 9.90918 17.8643 10.1533V10.959C17.8643 11.2031 17.8154 11.3691 17.7178 11.457C17.6201 11.5449 17.4492 11.5889 17.2051 11.5889H16.3848ZM20.9551 11.5889C20.7012 11.5889 20.5254 11.5449 20.4277 11.457C20.3398 11.3691 20.2959 11.2031 20.2959 10.959V10.1533C20.2959 9.90918 20.3398 9.74316 20.4277 9.65527C20.5254 9.55762 20.7012 9.50879 20.9551 9.50879H21.7754C22.0195 9.50879 22.1855 9.55762 22.2734 9.65527C22.3711 9.74316 22.4199 9.90918 22.4199 10.1533V10.959C22.4199 11.2031 22.3711 11.3691 22.2734 11.457C22.1855 11.5449 22.0195 11.5889 21.7754 11.5889H20.9551ZM7.25879 16.1006C7.00488 16.1006 6.8291 16.0566 6.73145 15.9688C6.64355 15.8711 6.59961 15.7002 6.59961 15.4561V14.6357C6.59961 14.3916 6.64355 14.2256 6.73145 14.1377C6.8291 14.0498 7.00488 14.0059 7.25879 14.0059H8.06445C8.31836 14.0059 8.48926 14.0498 8.57715 14.1377C8.6748 14.2256 8.72363 14.3916 8.72363 14.6357V15.4561C8.72363 15.7002 8.6748 15.8711 8.57715 15.9688C8.48926 16.0566 8.31836 16.1006 8.06445 16.1006H7.25879ZM11.8291 16.1006C11.585 16.1006 11.4092 16.0566 11.3018 15.9688C11.2041 15.8711 11.1553 15.7002 11.1553 15.4561V14.6357C11.1553 14.3916 11.2041 14.2256 11.3018 14.1377C11.4092 14.0498 11.585 14.0059 11.8291 14.0059H12.6348C12.8789 14.0059 13.0449 14.0498 13.1328 14.1377C13.2305 14.2256 13.2793 14.3916 13.2793 14.6357V15.4561C13.2793 15.7002 13.2305 15.8711 13.1328 15.9688C13.0449 16.0566 12.8789 16.1006 12.6348 16.1006H11.8291ZM16.3848 16.1006C16.1406 16.1006 15.9697 16.0566 15.8721 15.9688C15.7842 15.8711 15.7402 15.7002 15.7402 15.4561V14.6357C15.7402 14.3916 15.7842 14.2256 15.8721 14.1377C15.9697 14.0498 16.1406 14.0059 16.3848 14.0059H17.2051C17.4492 14.0059 17.6201 14.0498 17.7178 14.1377C17.8154 14.2256 17.8643 14.3916 17.8643 14.6357V15.4561C17.8643 15.7002 17.8154 15.8711 17.7178 15.9688C17.6201 16.0566 17.4492 16.1006 17.2051 16.1006H16.3848ZM20.9551 16.1006C20.7012 16.1006 20.5254 16.0566 20.4277 15.9688C20.3398 15.8711 20.2959 15.7002 20.2959 15.4561V14.6357C20.2959 14.3916 20.3398 14.2256 20.4277 14.1377C20.5254 14.0498 20.7012 14.0059 20.9551 14.0059H21.7754C22.0195 14.0059 22.1855 14.0498 22.2734 14.1377C22.3711 14.2256 22.4199 14.3916 22.4199 14.6357V15.4561C22.4199 15.7002 22.3711 15.8711 22.2734 15.9688C22.1855 16.0566 22.0195 16.1006 21.7754 16.1006H20.9551ZM7.25879 20.583C7.00488 20.583 6.8291 20.5391 6.73145 20.4512C6.64355 20.3633 6.59961 20.1973 6.59961 19.9531V19.1475C6.59961 18.8936 6.64355 18.7227 6.73145 18.6348C6.8291 18.5469 7.00488 18.5029 7.25879 18.5029H8.06445C8.31836 18.5029 8.48926 18.5469 8.57715 18.6348C8.6748 18.7227 8.72363 18.8936 8.72363 19.1475V19.9531C8.72363 20.1973 8.6748 20.3633 8.57715 20.4512C8.48926 20.5391 8.31836 20.583 8.06445 20.583H7.25879ZM11.8291 20.583C11.585 20.583 11.4092 20.5391 11.3018 20.4512C11.2041 20.3633 11.1553 20.1973 11.1553 19.9531V19.1475C11.1553 18.8936 11.2041 18.7227 11.3018 18.6348C11.4092 18.5469 11.585 18.5029 11.8291 18.5029H12.6348C12.8789 18.5029 13.0449 18.5469 13.1328 18.6348C13.2305 18.7227 13.2793 18.8936 13.2793 19.1475V19.9531C13.2793 20.1973 13.2305 20.3633 13.1328 20.4512C13.0449 20.5391 12.8789 20.583 12.6348 20.583H11.8291ZM16.3848 20.583C16.1406 20.583 15.9697 20.5391 15.8721 20.4512C15.7842 20.3633 15.7402 20.1973 15.7402 19.9531V19.1475C15.7402 18.8936 15.7842 18.7227 15.8721 18.6348C15.9697 18.5469 16.1406 18.5029 16.3848 18.5029H17.2051C17.4492 18.5029 17.6201 18.5469 17.7178 18.6348C17.8154 18.7227 17.8643 18.8936 17.8643 19.1475V19.9531C17.8643 20.1973 17.8154 20.3633 17.7178 20.4512C17.6201 20.5391 17.4492 20.583 17.2051 20.583H16.3848Z" fill="white"/>
</svg>
