<svg width="61" height="61" viewBox="0 0 61 61" fill="none" xmlns="http://www.w3.org/2000/svg">
<path d="M30.2188 60.5938C26.1146 60.5938 22.2604 59.8125 18.6562 58.25C15.0521 56.6875 11.875 54.5312 9.125 51.7812C6.375 49.0312 4.20833 45.8542 2.625 42.25C1.0625 38.625 0.28125 34.7604 0.28125 30.6562C0.28125 26.5729 1.0625 22.7292 2.625 19.125C4.1875 15.5 6.34375 12.3125 9.09375 9.5625C11.8646 6.79167 15.0521 4.625 18.6562 3.0625C22.2604 1.5 26.1042 0.71875 30.1875 0.71875C34.2917 0.71875 38.1458 1.5 41.75 3.0625C45.3542 4.625 48.5312 6.79167 51.2812 9.5625C54.0521 12.3125 56.2188 15.5 57.7812 19.125C59.3646 22.7292 60.1562 26.5729 60.1562 30.6562C60.1562 34.7604 59.375 38.625 57.8125 42.25C56.25 45.8542 54.0833 49.0312 51.3125 51.7812C48.5625 54.5312 45.3854 56.6875 41.7812 58.25C38.1771 59.8125 34.3229 60.5938 30.2188 60.5938ZM30.2188 56.0625C33.7396 56.0625 37.0312 55.4062 40.0938 54.0938C43.1771 52.7812 45.875 50.9688 48.1875 48.6562C50.5208 46.3229 52.3333 43.625 53.625 40.5625C54.9375 37.4792 55.5938 34.1771 55.5938 30.6562C55.5938 27.1562 54.9375 23.875 53.625 20.8125C52.3333 17.7292 50.5208 15.0312 48.1875 12.7188C45.875 10.3854 43.1771 8.5625 40.0938 7.25C37.0312 5.9375 33.7292 5.28125 30.1875 5.28125C26.6667 5.28125 23.375 5.9375 20.3125 7.25C17.25 8.5625 14.5625 10.3854 12.25 12.7188C9.9375 15.0312 8.125 17.7292 6.8125 20.8125C5.5 23.875 4.84375 27.1562 4.84375 30.6562C4.84375 34.1771 5.5 37.4792 6.8125 40.5625C8.125 43.625 9.9375 46.3229 12.25 48.6562C14.5625 50.9688 17.25 52.7812 20.3125 54.0938C23.3958 55.4062 26.6979 56.0625 30.2188 56.0625ZM26.9688 44.6875C26.5104 44.6875 26.1042 44.5938 25.75 44.4062C25.3958 44.1979 25.0417 43.8646 24.6875 43.4062L17.2188 34.3438C16.8021 33.7812 16.5938 33.2188 16.5938 32.6562C16.5938 32.0521 16.7917 31.5521 17.1875 31.1562C17.5833 30.7396 18.0729 30.5312 18.6562 30.5312C19.0521 30.5312 19.4062 30.6042 19.7188 30.75C20.0312 30.8958 20.3438 31.1771 20.6562 31.5938L26.875 39.4688L39.5625 19.25C40.0833 18.4375 40.7083 18.0312 41.4375 18.0312C41.9792 18.0312 42.4792 18.2188 42.9375 18.5938C43.3958 18.9479 43.625 19.4167 43.625 20C43.625 20.2917 43.5521 20.5833 43.4062 20.875C43.2812 21.1667 43.1354 21.4479 42.9688 21.7188L29.125 43.4062C28.5833 44.2604 27.8646 44.6875 26.9688 44.6875Z" fill="black"/>
</svg>
