<svg width="109" height="18" viewBox="0 0 109 18" fill="none" xmlns="http://www.w3.org/2000/svg">
<path d="M10.9432 6.14773H9.17045C9.10227 5.76894 8.97538 5.43561 8.78977 5.14773C8.60417 4.85985 8.37689 4.61553 8.10795 4.41477C7.83902 4.21401 7.53788 4.0625 7.20455 3.96023C6.875 3.85795 6.52462 3.80682 6.15341 3.80682C5.48295 3.80682 4.88258 3.97538 4.35227 4.3125C3.82576 4.64962 3.40909 5.14394 3.10227 5.79545C2.79924 6.44697 2.64773 7.24242 2.64773 8.18182C2.64773 9.12879 2.79924 9.92803 3.10227 10.5795C3.40909 11.2311 3.82765 11.7235 4.35795 12.0568C4.88826 12.3902 5.48485 12.5568 6.14773 12.5568C6.51515 12.5568 6.86364 12.5076 7.19318 12.4091C7.52652 12.3068 7.82765 12.1572 8.09659 11.9602C8.36553 11.7633 8.5928 11.5227 8.77841 11.2386C8.9678 10.9508 9.09848 10.6212 9.17045 10.25L10.9432 10.2557C10.8485 10.8277 10.6648 11.3542 10.392 11.8352C10.1231 12.3125 9.77652 12.7254 9.35227 13.0739C8.93182 13.4186 8.45076 13.6856 7.90909 13.875C7.36742 14.0644 6.77652 14.1591 6.13636 14.1591C5.12879 14.1591 4.23106 13.9205 3.44318 13.4432C2.6553 12.9621 2.03409 12.2746 1.57955 11.3807C1.12879 10.4867 0.903409 9.42045 0.903409 8.18182C0.903409 6.93939 1.13068 5.87311 1.58523 4.98295C2.03977 4.08901 2.66098 3.40341 3.44886 2.92614C4.23674 2.44508 5.13258 2.20455 6.13636 2.20455C6.75379 2.20455 7.32955 2.29356 7.86364 2.47159C8.40152 2.64583 8.88447 2.90341 9.3125 3.24432C9.74053 3.58144 10.0947 3.99432 10.375 4.48295C10.6553 4.9678 10.8447 5.52273 10.9432 6.14773ZM16.1038 14.1761C15.2856 14.1761 14.5716 13.9886 13.9618 13.6136C13.3519 13.2386 12.8784 12.714 12.5413 12.0398C12.2042 11.3655 12.0356 10.5777 12.0356 9.67614C12.0356 8.77083 12.2042 7.97917 12.5413 7.30114C12.8784 6.62311 13.3519 6.09659 13.9618 5.72159C14.5716 5.34659 15.2856 5.15909 16.1038 5.15909C16.922 5.15909 17.636 5.34659 18.2459 5.72159C18.8557 6.09659 19.3292 6.62311 19.6663 7.30114C20.0034 7.97917 20.172 8.77083 20.172 9.67614C20.172 10.5777 20.0034 11.3655 19.6663 12.0398C19.3292 12.714 18.8557 13.2386 18.2459 13.6136C17.636 13.9886 16.922 14.1761 16.1038 14.1761ZM16.1095 12.75C16.6398 12.75 17.0792 12.6098 17.4277 12.3295C17.7762 12.0492 18.0337 11.6761 18.2004 11.2102C18.3709 10.7443 18.4561 10.2311 18.4561 9.67045C18.4561 9.11364 18.3709 8.60227 18.2004 8.13636C18.0337 7.66667 17.7762 7.28977 17.4277 7.00568C17.0792 6.72159 16.6398 6.57955 16.1095 6.57955C15.5754 6.57955 15.1322 6.72159 14.7799 7.00568C14.4315 7.28977 14.172 7.66667 14.0015 8.13636C13.8349 8.60227 13.7515 9.11364 13.7515 9.67045C13.7515 10.2311 13.8349 10.7443 14.0015 11.2102C14.172 11.6761 14.4315 12.0492 14.7799 12.3295C15.1322 12.6098 15.5754 12.75 16.1095 12.75ZM21.5883 14V5.27273H23.219V6.69318H23.3269C23.5088 6.21212 23.8061 5.83712 24.219 5.56818C24.6319 5.29545 25.1262 5.15909 25.7019 5.15909C26.2853 5.15909 26.7739 5.29545 27.1678 5.56818C27.5656 5.84091 27.8591 6.21591 28.0485 6.69318H28.1394C28.3478 6.22727 28.6792 5.85606 29.1338 5.57955C29.5883 5.29924 30.13 5.15909 30.7588 5.15909C31.5504 5.15909 32.1963 5.4072 32.6963 5.90341C33.2 6.39962 33.4519 7.14773 33.4519 8.14773V14H31.7531V8.30682C31.7531 7.71591 31.5921 7.28788 31.2701 7.02273C30.9481 6.75758 30.5637 6.625 30.1167 6.625C29.5637 6.625 29.1338 6.79545 28.8269 7.13636C28.5201 7.47348 28.3667 7.9072 28.3667 8.4375V14H26.6735V8.19886C26.6735 7.72538 26.5258 7.3447 26.2303 7.05682C25.9349 6.76894 25.5504 6.625 25.0769 6.625C24.755 6.625 24.4576 6.71023 24.1849 6.88068C23.9159 7.04735 23.6981 7.2803 23.5315 7.57955C23.3686 7.87879 23.2872 8.22538 23.2872 8.61932V14H21.5883ZM35.2489 17.2727V5.27273H36.908V6.6875H37.0501C37.1485 6.50568 37.2906 6.29545 37.4762 6.05682C37.6618 5.81818 37.9194 5.60985 38.2489 5.43182C38.5785 5.25 39.0141 5.15909 39.5557 5.15909C40.2603 5.15909 40.8891 5.33712 41.4421 5.69318C41.9951 6.04924 42.4288 6.5625 42.7432 7.23295C43.0614 7.90341 43.2205 8.71023 43.2205 9.65341C43.2205 10.5966 43.0633 11.4053 42.7489 12.0795C42.4345 12.75 42.0027 13.267 41.4535 13.6307C40.9042 13.9905 40.2773 14.1705 39.5728 14.1705C39.0425 14.1705 38.6088 14.0814 38.2716 13.9034C37.9383 13.7254 37.677 13.517 37.4876 13.2784C37.2982 13.0398 37.1523 12.8277 37.0501 12.642H36.9478V17.2727H35.2489ZM36.9137 9.63636C36.9137 10.25 37.0027 10.7879 37.1807 11.25C37.3588 11.7121 37.6163 12.0739 37.9535 12.3352C38.2906 12.5928 38.7035 12.7216 39.1921 12.7216C39.6997 12.7216 40.1239 12.5871 40.4648 12.3182C40.8057 12.0455 41.0633 11.6761 41.2376 11.2102C41.4156 10.7443 41.5046 10.2197 41.5046 9.63636C41.5046 9.06061 41.4175 8.54356 41.2432 8.08523C41.0728 7.62689 40.8152 7.26515 40.4705 7C40.1296 6.73485 39.7035 6.60227 39.1921 6.60227C38.6997 6.60227 38.283 6.72917 37.9421 6.98295C37.605 7.23674 37.3493 7.59091 37.1751 8.04545C37.0008 8.5 36.9137 9.0303 36.9137 9.63636ZM47.1837 14.1932C46.6307 14.1932 46.1307 14.0909 45.6837 13.8864C45.2367 13.678 44.8826 13.3769 44.6212 12.983C44.3636 12.589 44.2348 12.1061 44.2348 11.5341C44.2348 11.0417 44.3295 10.6364 44.5189 10.3182C44.7083 10 44.964 9.74811 45.286 9.5625C45.6079 9.37689 45.9678 9.23674 46.3655 9.14205C46.7632 9.04735 47.1685 8.97538 47.5814 8.92614C48.1041 8.86553 48.5284 8.81629 48.8541 8.77841C49.1799 8.73674 49.4166 8.67045 49.5644 8.57955C49.7121 8.48864 49.786 8.34091 49.786 8.13636V8.09659C49.786 7.60038 49.6458 7.21591 49.3655 6.94318C49.089 6.67045 48.6761 6.53409 48.1269 6.53409C47.5549 6.53409 47.1041 6.66098 46.7746 6.91477C46.4488 7.16477 46.2235 7.44318 46.0985 7.75L44.5019 7.38636C44.6913 6.85606 44.9678 6.42803 45.3314 6.10227C45.6988 5.77273 46.1212 5.53409 46.5985 5.38636C47.0757 5.23485 47.5776 5.15909 48.1041 5.15909C48.4526 5.15909 48.822 5.20076 49.2121 5.28409C49.606 5.36364 49.9735 5.51136 50.3144 5.72727C50.6591 5.94318 50.9413 6.25189 51.161 6.65341C51.3807 7.05114 51.4905 7.56818 51.4905 8.20455V14H49.8314V12.8068H49.7632C49.6534 13.0265 49.4886 13.2424 49.2689 13.4545C49.0492 13.6667 48.767 13.8428 48.4223 13.983C48.0776 14.1231 47.6648 14.1932 47.1837 14.1932ZM47.553 12.8295C48.0227 12.8295 48.4242 12.7367 48.7576 12.5511C49.0947 12.3655 49.3504 12.1231 49.5246 11.8239C49.7026 11.5208 49.7916 11.197 49.7916 10.8523V9.72727C49.731 9.78788 49.6136 9.8447 49.4394 9.89773C49.2689 9.94697 49.0738 9.99053 48.8541 10.0284C48.6345 10.0625 48.4204 10.0947 48.2121 10.125C48.0038 10.1515 47.8295 10.1742 47.6894 10.1932C47.3598 10.2348 47.0587 10.3049 46.786 10.4034C46.517 10.5019 46.3011 10.6439 46.1382 10.8295C45.9791 11.0114 45.8996 11.2538 45.8996 11.5568C45.8996 11.9773 46.0549 12.2955 46.3655 12.5114C46.6761 12.7235 47.072 12.8295 47.553 12.8295ZM54.9722 8.81818V14H53.2733V5.27273H54.904V6.69318H55.0119C55.2127 6.23106 55.5271 5.85985 55.9551 5.57955C56.3869 5.29924 56.9305 5.15909 57.5858 5.15909C58.1805 5.15909 58.7013 5.28409 59.1483 5.53409C59.5953 5.7803 59.9419 6.14773 60.1881 6.63636C60.4343 7.125 60.5574 7.72917 60.5574 8.44886V14H58.8585V8.65341C58.8585 8.02083 58.6937 7.52652 58.3642 7.17045C58.0347 6.81061 57.582 6.63068 57.0062 6.63068C56.6123 6.63068 56.2619 6.71591 55.9551 6.88636C55.6521 7.05682 55.4116 7.30682 55.2335 7.63636C55.0593 7.96212 54.9722 8.35606 54.9722 8.81818ZM63.1172 17.2727C62.8634 17.2727 62.6323 17.2519 62.424 17.2102C62.2156 17.1723 62.0603 17.1307 61.9581 17.0852L62.3672 15.6932C62.6778 15.7765 62.9543 15.8125 63.1967 15.8011C63.4391 15.7898 63.6531 15.6989 63.8387 15.5284C64.0281 15.358 64.1948 15.0795 64.3387 14.6932L64.549 14.1136L61.3558 5.27273H63.174L65.3842 12.0455H65.4751L67.6853 5.27273H69.5092L65.9126 15.1648C65.7459 15.6193 65.5338 16.0038 65.2762 16.3182C65.0187 16.6364 64.7119 16.875 64.3558 17.0341C63.9997 17.1932 63.5869 17.2727 63.1172 17.2727Z" fill="url(#paint0_radial_1_304)"/>
<path fill-rule="evenodd" clip-rule="evenodd" d="M78.996 0.175781C76.2368 0.175781 74 2.41257 74 5.1718V12.0472C74 14.8064 76.2368 17.0432 78.996 17.0432H103.731C106.49 17.0432 108.727 14.8064 108.727 12.0472V5.1718C108.727 2.41257 106.49 0.175781 103.731 0.175781H78.996ZM82.873 13.5703H77.4956C77.3973 13.5703 77.3271 13.5001 77.3271 13.4018V5.87626C77.3271 5.76394 77.3552 5.6797 77.4394 5.59546L79.1804 3.85447C79.2646 3.77023 79.3489 3.74215 79.4612 3.74215H83.5329C83.6452 3.74215 83.7294 3.77023 83.8137 3.85447L85.5547 5.59546C85.6389 5.6797 85.667 5.7499 85.667 5.87626V10.7903C85.667 10.9167 85.6249 10.9869 85.5406 11.0711L83.1538 13.458C83.0695 13.5422 82.9853 13.5703 82.873 13.5703ZM78.689 5.52526V12.2084H82.5079L84.3051 10.4113V5.52526C84.3051 5.25849 84.1506 5.10405 83.8839 5.10405H79.1102C78.8434 5.10405 78.689 5.25849 78.689 5.52526ZM95.1043 7.94018H94.0794C93.9811 7.94018 93.9109 7.86998 93.9109 7.77169V5.52526C93.9109 5.25849 93.7565 5.10405 93.4897 5.10405H90.6536L88.0421 7.74361C87.9719 7.81381 87.8596 7.81381 87.7894 7.74361L87.0873 7.05564C87.0171 6.98544 87.0171 6.87312 87.0873 6.80292L90.0358 3.85447C90.12 3.77023 90.2043 3.74215 90.3166 3.74215H93.1387C93.251 3.74215 93.3353 3.77023 93.4195 3.85447L95.1605 5.59546C95.2447 5.6797 95.2728 5.76394 95.2728 5.87626V7.77169C95.2728 7.86998 95.2026 7.94018 95.1043 7.94018ZM88.3369 13.5703H87.312C87.2137 13.5703 87.1435 13.5001 87.1435 13.4018V10.0743C87.1435 9.96197 87.1716 9.87773 87.2558 9.79349L88.9968 8.0525C89.0811 7.96826 89.1653 7.94018 89.2776 7.94018H93.1808C93.2931 7.94018 93.3774 7.96826 93.4616 8.0525L95.2026 9.79349C95.2868 9.87773 95.3149 9.96197 95.3149 10.0743V13.4018C95.3149 13.5001 95.2447 13.5703 95.1464 13.5703H94.1215C94.0232 13.5703 93.953 13.5001 93.953 13.4018V9.72329C93.953 9.45652 93.7986 9.30208 93.5318 9.30208H88.9266C88.6599 9.30208 88.5054 9.45652 88.5054 9.72329V13.4018C88.5054 13.5001 88.4352 13.5703 88.3369 13.5703ZM102.957 13.458C102.873 13.5422 102.789 13.5703 102.676 13.5703H99.0539C98.9416 13.5703 98.8573 13.5422 98.7731 13.458L97.0321 11.717C96.9479 11.6328 96.9198 11.5626 96.9198 11.4362V6.52211C96.9198 6.39575 96.9619 6.32555 97.0462 6.24131L99.433 3.85447C99.5172 3.77023 99.6015 3.74215 99.7138 3.74215H103.336C103.449 3.74215 103.533 3.77023 103.617 3.85447L105.358 5.59546C105.442 5.6797 105.47 5.76394 105.47 5.87626V10.7903C105.47 10.9167 105.428 10.9869 105.344 11.0711L102.957 13.458ZM98.7029 12.2084H102.311L104.108 10.4113V5.52526C104.108 5.25849 103.954 5.10405 103.687 5.10405H100.079L98.2817 6.9012V11.7872C98.2817 12.054 98.4361 12.2084 98.7029 12.2084Z" fill="url(#paint1_radial_1_304)"/>
<defs>
<radialGradient id="paint0_radial_1_304" cx="0" cy="0" r="1" gradientUnits="userSpaceOnUse" gradientTransform="translate(107.185 -21.3382) rotate(165.843) scale(177.713 85.3582)">
<stop stop-color="#4A4A4A"/>
<stop offset="0.526345"/>
<stop offset="1" stop-color="#4A4A4A"/>
</radialGradient>
<radialGradient id="paint1_radial_1_304" cx="0" cy="0" r="1" gradientUnits="userSpaceOnUse" gradientTransform="translate(127.174 -22.3192) rotate(151.809) scale(96.9914 81.7953)">
<stop stop-color="#4A4A4A"/>
<stop offset="0.526345"/>
<stop offset="1" stop-color="#4A4A4A"/>
</radialGradient>
</defs>
</svg>
