<svg width="11" height="12" viewBox="0 0 11 12" fill="none" xmlns="http://www.w3.org/2000/svg">
<path d="M5.44336 11.9277C5.03711 11.9277 4.74609 11.8516 4.57031 11.6992C4.39844 11.5508 4.3125 11.2695 4.3125 10.8555V7.32812L4.98633 7.70312L1.95117 9.46094C1.82227 9.53125 1.70312 9.58789 1.59375 9.63086C1.48438 9.67383 1.38086 9.69531 1.2832 9.69531C1.11914 9.69531 0.972656 9.64062 0.84375 9.53125C0.71875 9.42188 0.59375 9.26172 0.46875 9.05078L0.363281 8.86914C0.289062 8.73633 0.228516 8.61133 0.181641 8.49414C0.138672 8.37305 0.117188 8.26367 0.117188 8.16602C0.117188 7.99805 0.171875 7.85352 0.28125 7.73242C0.390625 7.60742 0.546875 7.48633 0.75 7.36914L3.89062 5.57031V6.34375L0.755859 4.62109C0.552734 4.50391 0.398438 4.38281 0.292969 4.25781C0.1875 4.12891 0.134766 3.98047 0.134766 3.8125C0.134766 3.71484 0.154297 3.60938 0.193359 3.49609C0.232422 3.37891 0.285156 3.25391 0.351562 3.12109L0.451172 2.93945C0.560547 2.7168 0.681641 2.55078 0.814453 2.44141C0.947266 2.33203 1.09375 2.27734 1.25391 2.27734C1.35938 2.27734 1.4707 2.30078 1.58789 2.34766C1.70508 2.39062 1.82812 2.44922 1.95703 2.52344L4.99805 4.28711L4.3125 4.65039V1.14648C4.3125 0.732422 4.39844 0.449219 4.57031 0.296875C4.74609 0.144531 5.03711 0.0683594 5.44336 0.0683594H5.6543C6.06055 0.0683594 6.34961 0.144531 6.52148 0.296875C6.69727 0.449219 6.78516 0.730469 6.78516 1.14062V4.65625L6.12891 4.28125L9.14648 2.52344C9.27148 2.44922 9.39062 2.39258 9.50391 2.35352C9.61719 2.31055 9.7207 2.28906 9.81445 2.28906C9.97461 2.28906 10.1191 2.34375 10.248 2.45312C10.377 2.5625 10.5059 2.72266 10.6348 2.93359L10.7461 3.12695C10.8164 3.25977 10.873 3.38281 10.916 3.49609C10.959 3.60938 10.9805 3.7168 10.9805 3.81836C10.9805 3.98242 10.9258 4.12891 10.8164 4.25781C10.7109 4.38281 10.5566 4.50195 10.3535 4.61523L7.20703 6.34961V5.57031L10.3535 7.36914C10.5605 7.48633 10.7188 7.60938 10.8281 7.73828C10.9414 7.86328 10.998 8.01172 10.998 8.18359C10.998 8.37891 10.9141 8.61328 10.7461 8.88672L10.6348 9.0625C10.5059 9.26953 10.377 9.42578 10.248 9.53125C10.123 9.63672 9.98047 9.68945 9.82031 9.68945C9.72266 9.68945 9.61914 9.66992 9.50977 9.63086C9.40039 9.58789 9.2832 9.53125 9.1582 9.46094L6.11719 7.70898L6.78516 7.32227V10.8555C6.78516 11.2695 6.69727 11.5508 6.52148 11.6992C6.34961 11.8516 6.06055 11.9277 5.6543 11.9277H5.44336Z" fill="#FD3532"/>
</svg>
