<svg width="13" height="13" viewBox="0 0 13 13" fill="none" xmlns="http://www.w3.org/2000/svg">
<path d="M0.507812 12.3671C0.408854 12.2733 0.34375 12.1614 0.3125 12.0312C0.28125 11.9009 0.28125 11.7707 0.3125 11.6405C0.348958 11.5103 0.414062 11.3983 0.507812 11.3046L5.13281 6.67178L0.507812 2.04678C0.414062 1.95303 0.351562 1.84105 0.320312 1.71084C0.289062 1.58064 0.289062 1.45303 0.320312 1.32803C0.351562 1.19782 0.414062 1.08324 0.507812 0.984281C0.601562 0.885323 0.713542 0.820219 0.84375 0.788969C0.973958 0.757719 1.10156 0.760323 1.22656 0.796781C1.35677 0.828031 1.47135 0.890531 1.57031 0.984281L6.19531 5.61709L10.8359 0.984281C10.9766 0.843656 11.151 0.773344 11.3594 0.773344C11.5677 0.773344 11.7448 0.843656 11.8906 0.984281C12.0365 1.12491 12.1094 1.30199 12.1094 1.51553C12.1094 1.72907 12.0391 1.90616 11.8984 2.04678L7.25781 6.67178L11.8984 11.3046C12.0391 11.4452 12.1094 11.6223 12.1094 11.8358C12.1094 12.0442 12.0365 12.2213 11.8906 12.3671C11.7448 12.5129 11.5677 12.5832 11.3594 12.578C11.151 12.578 10.9766 12.5077 10.8359 12.3671L6.19531 7.73428L1.57031 12.3671C1.47135 12.4608 1.35677 12.5233 1.22656 12.5546C1.10156 12.5911 0.973958 12.5911 0.84375 12.5546C0.713542 12.5233 0.601562 12.4608 0.507812 12.3671Z" fill="#E5E5E5"/>
</svg>
